<svg id="empower-logo-blue" xmlns="http://www.w3.org/2000/svg" width="171.887" height="49.229" viewBox="0 0 171.887 49.229">
  <path id="Fill_1" data-name="Fill 1" d="M9.49,41.019H0V0H40.641V41.019H33.826L7.066,33.239c-.185-.055-.351-.1-.484-.136-.112-.03-.208-.056-.282-.078H6.263a.127.127,0,0,0-.1.043.134.134,0,0,0-.03.109,16.975,16.975,0,0,0,3.352,7.842Zm3.3-20.236c-.3,1.27-1.627,7.823,2.134,12.118l20.81,6.052Zm10.43-9.169c-1.1,1.619-4.507,7.311-2.031,12.61l16.7,13.228ZM36.675,6.494c-1.81,1.145-7.647,5.382-6.751,11.827l9.4,16.557L38.182,17.54c-.518-3.767-.978-7.16-1.25-9.188C36.807,7.465,36.721,6.825,36.675,6.494Z" fill="#1a4d81"/>
  <path id="Fill_2" data-name="Fill 2" d="M0,20.509V0H10.929l-.514,3.374H3.6V8.112H9.29v3.373H3.633v5.461h7.553v3.564H0" transform="translate(55.183 20.509)" fill="#1a4d81"/>
  <path id="Fill_3" data-name="Fill 3" d="M16.229,20.509l-.7-11.866c-.1-1.365-.156-4.248-.156-4.322-.032.114-.636,2.843-.955,4.207L11.329,20.509H8.243L5.346,8.72c-.319-1.176-.859-4.17-.924-4.587,0,.074-.063,3.146-.156,4.587l-.7,11.789H0L1.813,0H6.46L9.1,10.919c.319,1.4.764,4.207.8,4.359.033-.152.509-3.071.828-4.4L13.364,0h4.678l1.719,20.509H16.229" transform="translate(68.606 20.509)" fill="#1a4d81"/>
  <path id="Fill_4" data-name="Fill 4" d="M.326,27.594V5.416A24.887,24.887,0,0,0,0,.677L3.29,0a9.539,9.539,0,0,1,.259,2.33A5.332,5.332,0,0,1,7.947.078a5.2,5.2,0,0,1,2.374.554A5.621,5.621,0,0,1,12.3,2.351a8.856,8.856,0,0,1,1.359,2.962,16.572,16.572,0,0,1,.5,4.278,19.5,19.5,0,0,1-.432,4.274A10.536,10.536,0,0,1,12.47,17.11a6,6,0,0,1-2.053,2.061,5.474,5.474,0,0,1-2.8.721A5.823,5.823,0,0,1,3.715,18.35a.094.094,0,0,1,0,.018c.019.272.063,1,.063,1.862v6.355L.327,27.6ZM7.266,3.5A4.4,4.4,0,0,0,3.779,5.45v9.477a4.371,4.371,0,0,0,3.062,1.689,2.775,2.775,0,0,0,2.647-1.6,11.064,11.064,0,0,0,.839-4.981,12.96,12.96,0,0,0-.652-4.864A2.452,2.452,0,0,0,7.266,3.5Z" transform="translate(92.469 21.628)" fill="#1a4d81"/>
  <path id="Fill_5" data-name="Fill 5" d="M7.068,19.767A6.125,6.125,0,0,1,1.906,17.1,12.379,12.379,0,0,1,0,9.9C0,3.886,2.749,0,7,0a6.463,6.463,0,0,1,3.047.715A6.382,6.382,0,0,1,12.3,2.734a12.56,12.56,0,0,1,1.87,7.2,12.235,12.235,0,0,1-1.921,7.188,6.172,6.172,0,0,1-5.179,2.643ZM7.037,3.091A2.5,2.5,0,0,0,4.62,4.649a12.081,12.081,0,0,0-.752,4.99,13.1,13.1,0,0,0,.848,5.589,2.487,2.487,0,0,0,2.417,1.484A2.513,2.513,0,0,0,9.5,15.135a11.881,11.881,0,0,0,.828-5.123,12.173,12.173,0,0,0-.888-5.456A2.546,2.546,0,0,0,7.037,3.091Z" transform="translate(108.502 21.628)" fill="#1a4d81"/>
  <path id="Fill_6" data-name="Fill 6" d="M17.064,19.767H13.782L11.8,10.839c-.51-2.3-1.053-5.286-1.053-5.286h-.064s-.256,1.915-1.053,5.475L7.687,19.767H4.406L0,.577,3.477,0,5.235,9.383c.448,2.413.829,5.1.829,5.1h.1s.32-2.529.926-5.211L9.155.309H12.6L14.418,9.04c.67,3.141,1.02,5.513,1.02,5.513h.1s.383-2.947.8-5.207L17.99.309h3.635L17.064,19.767" transform="translate(123.789 21.628)" fill="#1a4d81"/>
  <path id="Fill_7" data-name="Fill 7" d="M7.394,19.766A6.5,6.5,0,0,1,2,17.1,11.97,11.97,0,0,1,0,9.9c0-3.3.6-5.5,2-7.37A5.736,5.736,0,0,1,6.918,0a5.7,5.7,0,0,1,4.41,1.936A6.733,6.733,0,0,1,12.9,4.941a20.615,20.615,0,0,1,.523,5.183v.854H3.839v.3a7.293,7.293,0,0,0,.806,3.655,3.421,3.421,0,0,0,3.161,1.7,5.475,5.475,0,0,0,4-1.86l1.364,2.491a8.781,8.781,0,0,1-2.71,1.875,7.716,7.716,0,0,1-3.065.625ZM6.918,3.09c-1.935,0-3.047,1.777-3.047,4.875H9.805a7.07,7.07,0,0,0-.789-3.583A2.4,2.4,0,0,0,6.918,3.09Z" transform="translate(146.906 21.629)" fill="#1a4d81"/>
  <path id="Fill_8" data-name="Fill 8" d="M7.891,4.18a2.193,2.193,0,0,0-.963-.266,3.305,3.305,0,0,0-2.951,2.85v13H.559V6.2A18.53,18.53,0,0,0,0,1.024L3.139.036a8.062,8.062,0,0,1,.59,3.042C4.971.986,6.214,0,7.735,0A2.172,2.172,0,0,1,8.948.3L7.891,4.18" transform="translate(162.939 21.629)" fill="#1a4d81"/>
</svg>
