<svg xmlns="http://www.w3.org/2000/svg" xmlns:xlink="http://www.w3.org/1999/xlink" width="287.636" height="304.432" viewBox="0 0 287.636 304.432">
  <defs>
    <clipPath id="clip-path">
      <rect id="SVGID" width="170.657" height="187.65" fill="none"/>
    </clipPath>
    <linearGradient id="linear-gradient" x1="-3.824" y1="-3.41" x2="-3.467" y2="-0.994" gradientUnits="objectBoundingBox">
      <stop offset="0" stop-color="#e38ddd"/>
      <stop offset="1" stop-color="#9571f6"/>
    </linearGradient>
    <clipPath id="clip-path-2">
      <path id="SVGID-2" data-name="SVGID" d="M1634.37,2083.6c.016,14.552-.567,29.36-.63,44.014,7.668,3.186,16.765,6.745,21.643-2.371,6.777-12.676,31.822-10.3,42.943-7,13.764,4.088,44.336,10.157,44.293-10.956-.034-17.576-7.024-28.387,14.018-32.683s32.6-15.786,29.7-35.228c-3.055-20.461,21.953-38.756,8.57-55.52-23.325-29.215-62.2,14.826-69.316,43.515s-20.5,17.66-40.335,17.341c-27.079-.435-13.459,29.1-26.072,37.136C1649.291,2088.143,1644.2,2084.76,1634.37,2083.6Z" transform="translate(-1633.74 -1974.242)" fill="none"/>
    </clipPath>
    <clipPath id="clip-path-3">
      <path id="SVGID-3" data-name="SVGID" d="M1979.249,1627.4q-15.97-2.348-31.9-5.431c-.173.156-3.663-22.988,7.331-35.125,21.744-23.514,7.1-44.617,2.919-57.121-6.684-17.634-3.259-39.065,16.163-35.051,18.925,3.457,21.791-35.5,18.522-65.5-2.787-14.605,10.994-32.327,24.746-36.376,14.038-4.487,28.048,4.7,32.342,33.809,6.5,33.708-18.1,54.035-27.21,70.935-8.959,16.59,11.888,30.013-4.894,44.712-14.116,13.062-31.911,22.448-25.4,38.857C1998.56,1597.321,1996.955,1610.585,1979.249,1627.4Z" transform="translate(-1946.686 -1391.71)" fill="none"/>
    </clipPath>
    <linearGradient id="linear-gradient-2" x1="-1.882" y1="-0.918" x2="-2.619" y2="0.004" gradientUnits="objectBoundingBox">
      <stop offset="0" stop-color="#ffc444"/>
      <stop offset="1" stop-color="#f36f56"/>
    </linearGradient>
    <linearGradient id="linear-gradient-3" x1="1.122" y1="0.536" x2="0.01" y2="0.466" xlink:href="#linear-gradient-2"/>
    <linearGradient id="linear-gradient-4" x1="-33.819" y1="18.476" x2="-33.218" y2="20.208" xlink:href="#linear-gradient-2"/>
    <linearGradient id="linear-gradient-5" x1="-2.974" y1="7.17" x2="-2.301" y2="4.307" gradientUnits="objectBoundingBox">
      <stop offset="0" stop-color="#ff9085"/>
      <stop offset="1" stop-color="#fb6fbb"/>
    </linearGradient>
    <linearGradient id="linear-gradient-6" x1="-12.895" y1="4.038" x2="-11.905" y2="4.038" gradientUnits="objectBoundingBox">
      <stop offset="0" stop-color="#444b8c"/>
      <stop offset="1" stop-color="#26264f"/>
    </linearGradient>
    <linearGradient id="linear-gradient-7" x1="-61.979" y1="2.264" x2="-60.672" y2="0.465" xlink:href="#linear-gradient-2"/>
    <linearGradient id="linear-gradient-8" x1="-21.679" y1="6.404" x2="-20.714" y2="6.404" xlink:href="#linear-gradient-6"/>
    <linearGradient id="linear-gradient-9" x1="-61.076" y1="4.518" x2="-60.016" y2="2.629" xlink:href="#linear-gradient-2"/>
    <linearGradient id="linear-gradient-10" x1="3.094" y1="0.661" x2="2.167" y2="-0.002" gradientUnits="objectBoundingBox">
      <stop offset="0" stop-color="#311944"/>
      <stop offset="1" stop-color="#893976"/>
    </linearGradient>
    <linearGradient id="linear-gradient-11" x1="3.359" y1="0.676" x2="2.303" y2="0.002" xlink:href="#linear-gradient-10"/>
    <linearGradient id="linear-gradient-12" x1="1.733" y1="0.945" x2="0.64" y2="0.294" xlink:href="#linear-gradient-10"/>
    <linearGradient id="linear-gradient-13" x1="0.265" y1="0.845" x2="0.905" y2="-0.295" xlink:href="#linear-gradient-5"/>
    <linearGradient id="linear-gradient-14" x1="2.27" y1="-5.263" x2="2.326" y2="-7.032" xlink:href="#linear-gradient-2"/>
    <linearGradient id="linear-gradient-15" x1="-25.982" y1="-1.995" x2="-26.66" y2="-3.543" gradientUnits="objectBoundingBox">
      <stop offset="0" stop-color="#311944"/>
      <stop offset="1" stop-color="#6b3976"/>
    </linearGradient>
    <linearGradient id="linear-gradient-16" x1="-4.871" y1="-4.122" x2="-4.906" y2="-0.961" xlink:href="#linear-gradient-2"/>
    <linearGradient id="linear-gradient-17" x1="-31.115" y1="-3.232" x2="-31.918" y2="-5.36" xlink:href="#linear-gradient-15"/>
    <linearGradient id="linear-gradient-18" x1="-143.464" y1="-64.062" x2="-143.28" y2="-59.181" xlink:href="#linear-gradient-2"/>
    <linearGradient id="linear-gradient-19" x1="0.422" y1="0.12" x2="0.581" y2="1.146" xlink:href="#linear-gradient-2"/>
    <linearGradient id="linear-gradient-20" x1="0.277" y1="0.954" x2="1.355" y2="-0.762" xlink:href="#linear-gradient-5"/>
    <linearGradient id="linear-gradient-21" x1="0.317" y1="0.83" x2="1.122" y2="-0.839" xlink:href="#linear-gradient-5"/>
    <linearGradient id="linear-gradient-22" x1="2.28" y1="0.49" x2="3.391" y2="0.511" gradientUnits="objectBoundingBox">
      <stop offset="0" stop-color="#aa80f9"/>
      <stop offset="1" stop-color="#6165d7"/>
    </linearGradient>
    <linearGradient id="linear-gradient-23" x1="-5.041" y1="-13.025" x2="-6.795" y2="-16.472" xlink:href="#linear-gradient-22"/>
    <linearGradient id="linear-gradient-24" x1="-5.046" y1="-16.49" x2="-6.799" y2="-20.801" xlink:href="#linear-gradient-22"/>
    <linearGradient id="linear-gradient-25" x1="2.853" y1="-0.351" x2="2.548" y2="2.052" gradientUnits="objectBoundingBox">
      <stop offset="0" stop-color="#40447e"/>
      <stop offset="1" stop-color="#3c3b6b"/>
    </linearGradient>
    <linearGradient id="linear-gradient-26" x1="1.346" y1="0.5" x2="2.346" y2="0.5" xlink:href="#linear-gradient-25"/>
    <linearGradient id="linear-gradient-27" x1="2.797" y1="-0.274" x2="2.446" y2="1.887" xlink:href="#linear-gradient-25"/>
    <linearGradient id="linear-gradient-28" x1="0" y1="0.5" x2="1" y2="0.5" xlink:href="#linear-gradient-25"/>
    <linearGradient id="linear-gradient-29" x1="2.288" y1="0.485" x2="3.399" y2="0.515" xlink:href="#linear-gradient-2"/>
    <linearGradient id="linear-gradient-30" x1="-5.025" y1="-20.701" x2="-6.778" y2="-26.101" xlink:href="#linear-gradient-2"/>
    <linearGradient id="linear-gradient-31" x1="-6.407" y1="-19.832" x2="-8.16" y2="-24.99" xlink:href="#linear-gradient-2"/>
    <linearGradient id="linear-gradient-32" x1="8.328" y1="0.754" x2="8.073" y2="0.459" xlink:href="#linear-gradient-2"/>
    <linearGradient id="linear-gradient-33" x1="0.683" y1="0.923" x2="1.256" y2="2.441" xlink:href="#linear-gradient"/>
    <linearGradient id="linear-gradient-34" x1="0" y1="0.5" x2="1" y2="0.5" xlink:href="#linear-gradient-22"/>
    <linearGradient id="linear-gradient-36" x1="0" y1="0.5" x2="1" y2="0.5" xlink:href="#linear-gradient-22"/>
    <linearGradient id="linear-gradient-41" x1="0" y1="0.5" x2="1" y2="0.5" xlink:href="#linear-gradient-25"/>
    <linearGradient id="linear-gradient-42" x1="0" y1="0.5" x2="1" y2="0.5" xlink:href="#linear-gradient-6"/>
    <linearGradient id="linear-gradient-43" x1="0.575" y1="0.243" x2="0.37" y2="0.947" xlink:href="#linear-gradient-22"/>
    <linearGradient id="linear-gradient-44" x1="0" y1="0.5" x2="1" y2="0.5" xlink:href="#linear-gradient-22"/>
  </defs>
  <g id="home_1_improve" transform="translate(0.004 0)">
    <g id="Illustration" transform="translate(-0.004 0)">
      <path id="Path_1" data-name="Path 1" d="M643.034,421.967c-31.14,12.382-34.126,44.032-62.16,46.749-24.43,2.367-33.716-20.545-50.858-16.44-26.112,6.253-42.529,68.508-32.043,119.7C508.8,624.829,554.3,695.094,629.681,699.888c84.626,5.384,148.659-75.462,152.568-146.41.423-7.673,2.919-71.96-46.229-109.936C733.561,441.646,685.13,405.23,643.034,421.967Z" transform="translate(-494.766 -417.58)" fill="#f4f7fa"/>
      <g id="Group_6" data-name="Group 6" transform="translate(112.16 93.898)" clip-path="url(#clip-path)">
        <path id="Path_2" data-name="Path 2" d="M1680.9,2127.271c-1.913-.906-5.281-4.56-5.765-5.875-3.221-8.748-10.329-24.735-6.745-33.918.611-1.568,8.237-.741,9.713-1.884,4.99-.652,6.762-.57,11.2-3.523,13.106-8.711-1.007-37.6,26.205-37.341,19.932.187,33.2,11.369,40.349-17.36s45.993-72.723,69.322-43.522c13.389,16.758-11.629,35.06-8.57,55.52,2.906,19.442-8.657,30.933-29.7,35.228s-14.04,15.1-14.018,32.686c.025,21.128-30.481,15-44.324,10.972C1717.415,2115.009,1686.841,2114.265,1680.9,2127.271Z" transform="translate(-1661.516 -1911.435)" fill="url(#linear-gradient)"/>
        <g id="Group_3" data-name="Group 3" transform="translate(2.495 62.804)" clip-path="url(#clip-path-2)">
          <g id="Group_2" data-name="Group 2" transform="translate(7.676 -5.474)" opacity="0.8">
            <path id="Path_3" data-name="Path 3" d="M1710.04,2092.152l-.05-.358a169.884,169.884,0,0,0,50.461-15.356,175.978,175.978,0,0,0,42.306-28.945c24.912-22.933,44.139-53.311,55.6-87.852l.342.115c-11.476,34.6-30.739,65.03-55.7,88a176.3,176.3,0,0,1-42.392,29A170.254,170.254,0,0,1,1710.04,2092.152Z" transform="translate(-1709.99 -1955.635)" fill="#fcfdfe"/>
            <path id="Path_4" data-name="Path 4" d="M2155.328,3191.643c-15.33-11.174-43.969-20.611-63.838-21.032l.007-.361c19.932.422,48.663,9.888,64.043,21.1Z" transform="translate(-2053.086 -3044.379)" fill="#fcfdfe"/>
            <path id="Path_5" data-name="Path 5" d="M1842.678,2706.192l-.148-.33c9.435-4.228,16.369-13.063,20.61-26.257,3.107-9.669,4.723-21.413,4.8-34.905h.363c-.08,13.53-1.7,25.31-4.819,35.014C1859.215,2693.011,1852.215,2701.92,1842.678,2706.192Z" transform="translate(-1829.188 -2571.733)" fill="#fcfdfe"/>
            <path id="Path_6" data-name="Path 6" d="M2666.534,2745.26l-.164-.322c17.339-8.868,37.648-6.171,51.627-2.347l-.1.349C2703.981,2739.133,2683.771,2736.445,2666.534,2745.26Z" transform="translate(-2570.096 -2656.545)" fill="#fcfdfe"/>
            <path id="Path_7" data-name="Path 7" d="M2927.93,1974.191l-.335-.136c3.544-8.74,7.98-27.386-2.135-54.066l.338-.129a94.817,94.817,0,0,1,6.074,27.1A61.65,61.65,0,0,1,2927.93,1974.191Z" transform="translate(-2803.104 -1919.86)" fill="#fcfdfe"/>
          </g>
        </g>
        <g id="Group_5" data-name="Group 5" transform="translate(33.998 4.163)" clip-path="url(#clip-path-3)">
          <path id="Path_8" data-name="Path 8" d="M1979.249,1627.4q-15.97-2.348-31.9-5.431c-.173.156-3.663-22.988,7.331-35.125,21.744-23.514,7.1-44.617,2.919-57.121-6.618-17.616-3.137-36.7,14.8-36.982,19.89-.7,23.5-33.622,19.891-63.572-2.787-14.605,10.994-32.327,24.746-36.376,14.038-4.487,28.049,4.7,32.342,33.809,6.5,33.708-18.1,54.035-27.21,70.935-8.959,16.59,11.888,30.013-4.894,44.712-14.116,13.062-31.911,22.448-25.4,38.857C1998.56,1597.321,1996.955,1610.585,1979.249,1627.4Z" transform="translate(-1946.686 -1391.71)" fill="url(#linear-gradient-2)"/>
          <g id="Group_4" data-name="Group 4" transform="translate(5.412 -7.15)" opacity="0.8">
            <path id="Path_9" data-name="Path 9" d="M2125.131,1564.888h-.361c0-.2,10.167-48.881,27.714-96.271,2.424-7.675,5.056-15.414,7.6-22.9,6.817-20.041,13.867-40.769,17.214-61.406,3.743-23.069,2.409-43.847-4.077-63.52l.343-.114c6.5,19.73,7.843,40.568,4.091,63.691-3.353,20.667-10.407,41.4-17.229,61.46-2.545,7.482-5.176,15.22-7.6,22.9C2135.344,1515.949,2125.154,1564.611,2125.131,1564.888Z" transform="translate(-2112.255 -1320.68)" fill="#fcfdfe"/>
            <path id="Path_10" data-name="Path 10" d="M2599.059,1728.4l-.269-.242c11.872-13.19,26.194-31.938,33.889-42,6-7.852,6.215-8.076,6.442-8.039l-.057.357.028-.178.068.163c-.3.2-2.9,3.6-6.2,7.916C2625.268,1696.449,2610.939,1715.2,2599.059,1728.4Z" transform="translate(-2538.558 -1642.131)" fill="#fcfdfe"/>
            <path id="Path_11" data-name="Path 11" d="M2420.782,1639.065c-2.46-15.145-8.7-25.1-13.506-30.788-5.349-6.333-10.167-9-10.654-9.045a.134.134,0,0,0,.08-.025l-.2-.3c.094-.062.218-.044.49.074,1.309.571,6.217,3.639,11.365,10.037,6.485,8.06,10.905,18.431,12.784,29.989Z" transform="translate(-2356.632 -1570.866)" fill="#fcfdfe"/>
            <path id="Path_12" data-name="Path 12" d="M2059.931,2472.629l-.359-.043c1.675-14.07-1.6-29.2-9.744-44.98a131.271,131.271,0,0,0-16.091-23.958c-.444-.53-.627-.749-.677-.836l.313-.181c.037.064.3.383.642.785a131.187,131.187,0,0,1,16.135,24.021C2058.321,2443.282,2061.612,2458.486,2059.931,2472.629Z" transform="translate(-2029.777 -2293.715)" fill="#fcfdfe"/>
            <path id="Path_13" data-name="Path 13" d="M2344.938,2752.759l-.308-.19c12.756-20.608,39.643-22.046,39.873-21.972l.135.169-.124.178-.057-.169-.017.176h0C2383.964,2730.952,2357.583,2732.328,2344.938,2752.759ZM2384.4,2730.6l.057.171Z" transform="translate(-2309.983 -2588.665)" fill="#fcfdfe"/>
            <path id="Path_14" data-name="Path 14" d="M2015.1,3377.452l-.362-.013c.226-6.128-1.964-16.574-13.675-31.533-.626-.8-.626-.8-.611-.906l.358.051-.179-.026.167-.064c.031.061.271.367.55.722C2013.131,3360.729,2015.332,3371.264,2015.1,3377.452Z" transform="translate(-2000.452 -3141.186)" fill="#fcfdfe"/>
            <path id="Path_15" data-name="Path 15" d="M2169.778,3348.643l-.348-.1c1.348-4.652,6.655-13.765,27.053-22.549.283-.123.465-.2.531-.233l.165.321c-.067.035-.258.117-.553.243C2176.365,3335.051,2171.108,3344.052,2169.778,3348.643Z" transform="translate(-2152.42 -3123.918)" fill="#fcfdfe"/>
          </g>
        </g>
      </g>
      <path id="Path_16" data-name="Path 16" d="M2135.6,619.968c11.7-4.933,22.864-3.6,28.436-1.51,6.588,2.479,8.773,4.34,14.6,5.276,5.183.832,10.564-4.575,14.6-.754a6.386,6.386,0,0,1,.983,1.13c2.894,4.254-.525,9.393.422,18.37.484,4.593,1.655,5.868,2.738,14.7.412,3.357.326,3.851.21,4.239-1.77,5.956-15.813,4.832-25.7,2.261-13.627-3.543-18.014-9.487-26.962-6.783a23.575,23.575,0,0,0-9.268,5.652C2136.587,648.418,2134.691,634.1,2135.6,619.968Z" transform="translate(-1970.199 -596.545)" fill="url(#linear-gradient-3)"/>
      <path id="Path_17" data-name="Path 17" d="M2134.431,740.4a.55.55,0,0,1-.551-.551V603.6a.551.551,0,0,1,1.1,0V739.854A.551.551,0,0,1,2134.431,740.4Z" transform="translate(-1968.878 -584.38)" fill="#26264f"/>
      <path id="Path_18" data-name="Path 18" d="M2115.35,1080.149l.986-1.374a1.832,1.832,0,0,1,.132-1.249l.32-.528a1.207,1.207,0,0,1,1.218-.118.6.6,0,0,0,.537-.066c.472-.326.6.572.6.572a.589.589,0,0,1,.035.747,1.133,1.133,0,0,1-.421.774,11.853,11.853,0,0,1-1.4.694l-1.1,1.326Z" transform="translate(-1952.213 -1010.386)" fill="url(#linear-gradient-4)"/>
      <path id="Path_19" data-name="Path 19" d="M1761.714,1027.422c-7.047,2.807-11.577,1.711-13.68.917a25.988,25.988,0,0,1-5.186-2.819c-3.584-2.576-4.987-5.134-8.519-5.695a8.228,8.228,0,0,0-1.922-.076c-5.1.451-10.771,7.195-10.039,11.677,1.265,7.775,22.912,15.783,34.8,7.128a19.973,19.973,0,0,0,6.72-9.261Z" transform="translate(-1598.733 -959.11)" fill="url(#linear-gradient-5)"/>
      <path id="Path_20" data-name="Path 20" d="M1653.733,1893.716c-.29.267-.308.89-.32,1.3a.979.979,0,0,0,.016.336c.176.457,1.082.451,2.509.509,2.253.092,2.93.228,3.085-.117.145-.322-.284-.805-.332-.863a2.052,2.052,0,0,0-1.144-.534c-1.077-.283-1.8-.431-2.022-.475C1654.153,1893.593,1653.924,1893.542,1653.733,1893.716Z" transform="translate(-1536.771 -1745.03)" fill="url(#linear-gradient-6)"/>
      <path id="Path_21" data-name="Path 21" d="M1656.379,1872.3l.087,2.565a1.387,1.387,0,0,1-1.434.1l-.442-2.541Z" transform="translate(-1537.836 -1725.86)" fill="url(#linear-gradient-7)"/>
      <path id="Path_22" data-name="Path 22" d="M1841.842,1892.1a1.265,1.265,0,0,0-.211,1.51c.3.385.778.132,2.114.242,1.427.119,1.782.476,2.766.261.4-.088,1.107-.314,1.107-.594,0-.2-.346-.318-1.5-.776a15.14,15.14,0,0,0-1.985-.757C1843.241,1891.781,1842.354,1891.585,1841.842,1892.1Z" transform="translate(-1705.898 -1743.371)" fill="url(#linear-gradient-8)"/>
      <path id="Path_23" data-name="Path 23" d="M1839.7,1872.3l.589,2.422a1.389,1.389,0,0,1-1.422.209l-.94-2.371Z" transform="translate(-1702.72 -1725.86)" fill="url(#linear-gradient-9)"/>
      <path id="Path_24" data-name="Path 24" d="M1705.209,1350.38a223.618,223.618,0,0,0,4.228,53.27l-2.781.592a23.3,23.3,0,0,1-6.1-10.734c-.717-3.032-.343-4.551-.7-8.255-.573-5.9-2.2-9.054-3.8-13.869a77.66,77.66,0,0,1-3.687-19.019Z" transform="translate(-1571.803 -1256.479)" fill="url(#linear-gradient-10)"/>
      <path id="Path_25" data-name="Path 25" d="M1703.964,1395.349c-1.022-4.044-2.989-5.113-3.058-8.93-.05-2.7.92-2.919.855-5.5-.1-3.92-2.394-5.975-3.547-8.441-1.218-2.6-1.685-6.787,1.6-13.744l-7.413,1.146a77.591,77.591,0,0,0,3.687,19.019c1.6,4.815,3.229,7.974,3.8,13.869.36,3.7-.014,5.222.7,8.255a23.3,23.3,0,0,0,6.1,10.734l.7-.151a13.684,13.684,0,0,1-3.437-7.449C1703.616,1400.8,1704.993,1399.426,1703.964,1395.349Z" transform="translate(-1571.84 -1263.989)" opacity="0.3" fill="url(#linear-gradient-11)"/>
      <path id="Path_26" data-name="Path 26" d="M1598.462,1343.994q-1.655,15.236-3.031,31.052-1.027,11.866-1.835,23.439l-2.818.2a32.7,32.7,0,0,1-2.517-7.7c-.784-4.052-.426-6.414-.642-10.581-.242-4.674-.906-5.725-1.85-11.655-1.927-12.035-2.891-18.052.165-21.6C1586.922,1346,1589.992,1343.139,1598.462,1343.994Z" transform="translate(-1474.325 -1250.595)" fill="url(#linear-gradient-12)"/>
      <path id="Path_27" data-name="Path 27" d="M1486.1,1002.229a61.021,61.021,0,0,1,36.248-1.024l1.516,8.483a100.994,100.994,0,0,1-.164,11.212c-.319,4.537-.631,4.605-1.36,11.01-1.19,10.442-.692,13.17-2.791,14.424-1.364.815-1.858-.169-8.823-.86-4.671-.463-7.055-.677-9.419.123-3.221,1.089-4.3,2.919-5.627,2.324-1.274-.572-1.436-2.771-1.59-6.606-.238-5.916-.223-9.938-.245-11.375-.1-6.6-1.773-11.646-3.914-18.1A87.49,87.49,0,0,0,1486.1,1002.229Z" transform="translate(-1386.307 -940.416)" fill="url(#linear-gradient-13)"/>
      <path id="Path_28" data-name="Path 28" d="M1649.4,934.47a19.386,19.386,0,0,1-.554,3.859c-.255,1.022-.415,1.281-.611,1.488-.295.311-.731.562-3.14,1.025-1.308.252-1.478.235-1.51.361-.173.619,3.242,2.943,6.916,2.622,2.248-.2,4.346-1.36,4.257-2.035s-2.337-.438-2.937-1.69c-.417-.872.166-2.046.832-3.009C1652.114,935.948,1649.931,935.612,1649.4,934.47Z" transform="translate(-1527.932 -882.437)" fill="url(#linear-gradient-14)"/>
      <path id="Path_29" data-name="Path 29" d="M1690.713,910.415a2.358,2.358,0,0,0,.1-2.695,2.567,2.567,0,0,0-1.793-.914,3.872,3.872,0,0,0-3.943,1.536c-.412.758.3,2.416.414,2.718.125.336.376.462.6.724.312.361.805.937,1.6,1.9a5.984,5.984,0,0,1,.375-.95,5.219,5.219,0,0,1,.738-1.1C1689.587,910.761,1690.178,911.052,1690.713,910.415Z" transform="translate(-1565.141 -857.506)" fill="url(#linear-gradient-15)"/>
      <path id="Path_30" data-name="Path 30" d="M1691.09,937.027a3.192,3.192,0,0,0,2.728,1.566c1.676-.02,2.121-3.754,1.1-4.605a2.121,2.121,0,0,0-1.637-.3c-.349.078-.471.214-1.042.33-.526.107-.669.041-.833.164-.2.155-.369.552-.1,1.664a.911.911,0,0,0-.956-.37.58.58,0,0,0-.235.2C1689.856,936.09,1690.217,936.662,1691.09,937.027Z" transform="translate(-1569.709 -881.689)" fill="url(#linear-gradient-16)"/>
      <path id="Path_31" data-name="Path 31" d="M1692.514,936.674c.077.064-.184.351-.226.776a2.048,2.048,0,0,0,1.551,1.989c.5.077.656-.219,1.494-.263a3.811,3.811,0,0,1,1.208.135,2.014,2.014,0,0,1-.7,2.2,2.089,2.089,0,0,1-1.836-.034,2.4,2.4,0,0,1-1.315-1.078c-.368-.735.053-1.143-.387-1.65a4.025,4.025,0,0,1-.805-.865,2.457,2.457,0,0,1-.153-.326C1691.8,937.12,1692.4,936.581,1692.514,936.674Z" transform="translate(-1570.886 -884.41)" fill="url(#linear-gradient-17)"/>
      <path id="Path_32" data-name="Path 32" d="M1727.385,965.953a2.036,2.036,0,0,1-.993.1c-.03,0-.064,0-.068.019a.766.766,0,0,0,.742.262c.266-.059.482-.3.451-.361C1727.5,965.943,1727.444,965.943,1727.385,965.953Z" transform="translate(-1602.349 -910.746)" fill="url(#linear-gradient-18)"/>
      <path id="Path_33" data-name="Path 33" d="M1528.818,1293.21l1.681-.094s1.841-1.541,2.68-1.445a7.212,7.212,0,0,1,2.245.8c.153.122-.459.805-1.07.74s-1.977.263-2.221.805-1.309.864-1.484.548l-2.259.449Z" transform="translate(-1424.34 -1203.676)" fill="url(#linear-gradient-19)"/>
      <path id="Path_34" data-name="Path 34" d="M1359.363,1050.349a4.065,4.065,0,0,1-.683,2.958c-2.222,2.846-9.771,1.682-14.259-2.131a14.683,14.683,0,0,1-5.016-11.131c.127-7.663,7.229-15.17,17.792-17.764l4.691,14.022c-6.512.1-10.469,5.009-9.882,8.513C1352.442,1047.426,1355.487,1049.775,1359.363,1050.349Z" transform="translate(-1254.377 -961.408)" fill="url(#linear-gradient-20)"/>
      <path id="Path_35" data-name="Path 35" d="M1561.008,1182.046c-3.423-1.462-3.406-4.487-6.606-5.749-4.566-1.8-9.611,2.384-10.4,1.223-.821-1.208,5.205-4.91,4.4-8.562-.636-2.9-4.842-2.389-7.095-6.361-2.136-3.769-.065-7.254-1.957-8.564-.678-.469-1.875-.655-4.145.344a48.134,48.134,0,0,1,2.8,14.7c.022,1.44.007,5.461.245,11.375.154,3.834.316,6.034,1.591,6.606,1.329.595,2.406-1.235,5.627-2.324,2.365-.805,4.748-.586,9.419-.123,6.965.691,7.459,1.675,8.823.86.89-.531,1.308-1.33,1.594-2.865A8.489,8.489,0,0,1,1561.008,1182.046Z" transform="translate(-1430.473 -1079.556)" opacity="0.3" fill="url(#linear-gradient-21)"/>
      <path id="Path_36" data-name="Path 36" d="M1004.028,1964.408q-29.092,1.033-58.158,2.355c-5.341.243-9.7-5.657-9.813-13.187l-.078-5.106c-.118-7.525,4.07-14.068,9.44-14.612q29.209-2.96,58.473-5.628Q1003.964,1946.321,1004.028,1964.408Z" transform="translate(-891.561 -1776.16)" fill="#d8dee8"/>
      <path id="Path_37" data-name="Path 37" d="M976.761,1948.327q-24.622,1.1-49.225,2.4c-6.96.295-12.628-7.411-12.785-17.187v-.107c-.156-9.777,5.29-18.321,12.294-19.052q24.733-3.05,49.515-5.893c.869-.083,10.96.787,10.963,1.86s-9.41,1.913-10.273,2q-25.1,2.669-50.158,5.552c-5.656.553-10.076,7.449-9.953,15.357v.108c.125,7.913,4.722,14.124,10.349,13.853q24.618-1.474,49.255-2.74c.86-.038,10.9,1.007,10.9,2.081S977.623,1948.292,976.761,1948.327Z" transform="translate(-872.47 -1758.402)" fill="url(#linear-gradient-22)"/>
      <path id="Path_38" data-name="Path 38" d="M1660.078,1961.714q-59.427-.137-118.829.929l-.178-36.073q59.773.482,119.514,2.176Q1660.33,1945.23,1660.078,1961.714Z" transform="translate(-1435.744 -1774.667)" fill="#f4f7fa"/>
      <path id="Path_39" data-name="Path 39" d="M1637.224,1914.424q-60.828-1.646-121.694-2.034a1.774,1.774,0,0,1-1.5-1.938,1.721,1.721,0,0,1,1.481-1.913q60.9.558,121.769,2.372c.684.02,1.225.823,1.208,1.793S1637.907,1914.443,1637.224,1914.424Z" transform="translate(-1411.425 -1758.451)" fill="url(#linear-gradient-23)"/>
      <path id="Path_40" data-name="Path 40" d="M1638.46,2261.381q-60.514-.067-121,1.117a1.721,1.721,0,0,1-1.491-1.9,1.775,1.775,0,0,1,1.471-1.953q60.523-1.014,121.074-.78c.68,0,1.219.792,1.208,1.761S1639.14,2261.381,1638.46,2261.381Z" transform="translate(-1413.17 -2072.574)" fill="url(#linear-gradient-24)"/>
      <path id="Path_41" data-name="Path 41" d="M995.753,2296.142h-.011l-1.836-.015-8,.243-47.231,1.647a12.139,12.139,0,0,0-3.984.764c-5.436,2.05-9.143,7.9-8.736,14.653l.008.088c.448,7.469,5.784,13.514,12.307,14.439a12.1,12.1,0,0,0,2.057.119l39.544-1.544,6.263-.246,2.416-.095,6.956-.309,1.454-.1h.011l.5.02,1.007-.021.029-.287.116-1.269.014-.153.094-1.033,2.228-24.322.141-1.54.065-.734.061-.582Z" transform="translate(-882.523 -2106.791)" fill="url(#linear-gradient-25)"/>
      <path id="Path_42" data-name="Path 42" d="M1649.242,2321.819l-104.209.656c-8.67.054-15.846-5-16.069-11.3l-.152-4.289c-.223-6.342,6.644-11.6,15.379-11.728l105.031-1.51Z" transform="translate(-1424.715 -2104.795)" fill="#f4f7fa"/>
      <path id="Path_43" data-name="Path 43" d="M1629.479,2310.431l-109.758.641c-7.509.044-13.833-6.579-14.13-14.8v-.09c-.3-8.255,5.594-15.1,13.166-15.209l110.712-1.637a1.446,1.446,0,0,1,1.425,1.5,1.5,1.5,0,0,1-1.423,1.535l-110.619,1.539c-6.1.084-10.856,5.59-10.621,12.249v.09c.234,6.634,5.335,11.979,11.4,11.938l109.849-.736a1.44,1.44,0,0,1,1.409,1.483A1.46,1.46,0,0,1,1629.479,2310.431Z" transform="translate(-1403.826 -2091.924)" fill="url(#linear-gradient-26)"/>
      <path id="Path_44" data-name="Path 44" d="M994.533,2838.824l-1.724.057-6.3.213-3.358.116-28.79.973-1.208.043-5.467.184-8.758.3-3.539.12a8.7,8.7,0,0,0-3.2.683,10.059,10.059,0,0,0-1.976,1.114c-4.329,3.065-7.28,9.711-7.28,17.339v.116c0,10.41,5.522,19.135,12.483,19.453l57.417,1.6,3.652.1.2-2.037.1-.986,3.39-33.835.238-1.949.257-2.114h0l.09-1.349.014-.352Z" transform="translate(-879.829 -2594.896)" fill="url(#linear-gradient-27)"/>
      <path id="Path_45" data-name="Path 45" d="M1666.476,2862.43v35.111l-28.624,1.133-72.717,2.872a17.808,17.808,0,0,1-6.443-.919,15.463,15.463,0,0,1-10.812-14.575v-6.059c0-8.053,6.326-14.8,14.518-16.136a18.21,18.21,0,0,1,2.769-.243l63.73-.741Z" transform="translate(-1441.868 -2616.318)" fill="#f4f7fa"/>
      <path id="Path_46" data-name="Path 46" d="M1646.23,2881.356c0,1.031-.552,1.892-1.233,1.92l-27.457,1.125-79.84,3.262a10.693,10.693,0,0,1-5.365-1.208c-5.637-2.842-9.586-10.369-9.586-19.344v-.125c0-11.628,6.69-21.17,14.942-21.322h.049l2.3-.025,67.074-.7,37.885-.4h.008c.675,0,1.225.848,1.225,1.878s-.552,1.886-1.233,1.894l-.979.019-38.318.51-66.09.871-1.86.026c-6.674.087-12.107,7.8-12.107,17.186v.127c0,8.684,4.64,15.7,10.624,16.5a8.52,8.52,0,0,0,1.459.069l75.709-2.875,30.589-1.161.976-.036C1645.68,2879.508,1646.23,2880.322,1646.23,2881.356Z" transform="translate(-1419.268 -2600.22)" fill="url(#linear-gradient-28)"/>
      <path id="Path_47" data-name="Path 47" d="M1011.8,2616.381l-58.147,1.309a9.354,9.354,0,0,1-9.606-9.448v-3.624a10.377,10.377,0,0,1,9.606-10.268l58.147-3.63Z" transform="translate(-898.823 -2371.96)" fill="#d8dee8"/>
      <path id="Path_48" data-name="Path 48" d="M984.16,2604.763l-49.237,1.377a12.214,12.214,0,0,1-12.513-12.32v-.077a13.54,13.54,0,0,1,12.513-13.381l49.237-3.851c.864-.054,10.88.593,10.88,1.352s-9.356,1.334-10.213,1.385l-49.9,3.606a10.911,10.911,0,0,0-10.128,10.788v.077a9.842,9.842,0,0,0,10.128,9.929l49.237-1.616c.858-.023,10.88.749,10.88,1.51S985.023,2604.744,984.16,2604.763Z" transform="translate(-879.361 -2359.179)" fill="url(#linear-gradient-29)"/>
      <path id="Path_49" data-name="Path 49" d="M1171.713,2172.912v23.383l-36.251.336-67.507.622-5.5.05-2.374.022-6.3.057-.659.007v-25.58l6.41.011h.008l3.239.055.307.016,28.394.27Z" transform="translate(-947.107 -1953.184)" fill="#f4f7fa"/>
      <path id="Path_50" data-name="Path 50" d="M1643.542,2580.268l-120.932-1a1.441,1.441,0,0,1-1.48-1.379,1.409,1.409,0,0,1,1.48-1.352l120.932,1.236a1.253,1.253,0,0,1,1.229,1.257,1.224,1.224,0,0,1-1.229,1.235Z" transform="translate(-1417.811 -2359.207)" fill="url(#linear-gradient-30)"/>
      <path id="Path_51" data-name="Path 51" d="M1644.813,2821.282a1.232,1.232,0,0,1-1.225,1.238h-.008l-37.894.4-67.084.7-2.315.027-.09.091-13.545.225h-.014a1.532,1.532,0,0,1-1.4-1.029,1.742,1.742,0,0,1-.062-.368.864.864,0,0,1,0-.1,1.448,1.448,0,0,1,1.479-1.4h.047l1.173-.01,6.956-.06,76.116-.627,35.654-.3.979-.018a1.216,1.216,0,0,1,1.233,1.223Z" transform="translate(-1417.851 -2578.212)" fill="url(#linear-gradient-31)"/>
      <path id="Path_52" data-name="Path 52" d="M1354.64,2957.655l-12.986-.741c-3.138-8.945-2.9-17.571,0-28.065l12.986.04A58.08,58.08,0,0,0,1354.64,2957.655Z" transform="translate(-1254.365 -2676.052)" fill="#fff" opacity="0.5"/>
      <path id="Path_53" data-name="Path 53" d="M1025.663,2724.185l-.413-16.195-14.9,16.408s-8.053,4.341-6.671,11.963l9.214-3.666,8.184,2.836S1021.281,2727.525,1025.663,2724.185Z" transform="translate(-952.302 -2477.425)" opacity="0.3" fill="url(#linear-gradient-32)"/>
      <path id="Path_54" data-name="Path 54" d="M1000.883,2709.011l16.581-1.011s-7.8,5.924-4.178,27.541c0,0-7.088-2.252-10.167-6.106l-7.227,6.936S991.477,2717.15,1000.883,2709.011Z" transform="translate(-944.515 -2477.434)" fill="url(#linear-gradient-33)"/>
      <path id="Path_55" data-name="Path 55" d="M696.712,2033.907a1.189,1.189,0,0,0-1.556.6l-45.52,124.773a1.265,1.265,0,0,0,2.356.861l45.52-124.769A1.185,1.185,0,0,0,696.712,2033.907Z" transform="translate(-633.992 -1871.122)" fill="url(#linear-gradient-34)"/>
      <rect id="Rectangle_4" data-name="Rectangle 4" width="30.733" height="2.531" rx="1.265" transform="translate(55.756 178.504)" fill="url(#linear-gradient-34)"/>
      <rect id="Rectangle_5" data-name="Rectangle 5" width="30.733" height="2.531" rx="1.265" transform="translate(47.44 201.281)" fill="url(#linear-gradient-36)"/>
      <rect id="Rectangle_6" data-name="Rectangle 6" width="30.733" height="2.531" rx="1.265" transform="translate(39.124 224.421)" fill="url(#linear-gradient-36)"/>
      <rect id="Rectangle_7" data-name="Rectangle 7" width="30.733" height="2.531" rx="1.265" transform="translate(30.447 248.285)" fill="url(#linear-gradient-34)"/>
      <rect id="Rectangle_8" data-name="Rectangle 8" width="30.733" height="2.531" rx="1.265" transform="translate(22.131 271.064)" fill="url(#linear-gradient-34)"/>
      <path id="Path_56" data-name="Path 56" d="M972.613,2025.3a1.231,1.231,0,0,0-1.611.628l-47.011,129.012a1.218,1.218,0,0,0,.826,1.51,1.234,1.234,0,0,0,1.611-.627l47.011-129.012A1.223,1.223,0,0,0,972.613,2025.3Z" transform="translate(-880.728 -1863.38)" fill="url(#linear-gradient-34)"/>
      <path id="Path_57" data-name="Path 57" d="M2373.077,2652.943v31.247l1.053-.036c.68-.025,1.269.788,1.269,1.822s-.534,1.892-1.215,1.92l-27.45,1.125c-.767-.575-1.5-1.186-2.215-1.825-.654-.59-1.288-1.208-1.9-1.844a32.883,32.883,0,0,1-7.722-31.9q.3-1.047.674-2.061.335-.923.73-1.812c.188-.434.387-.864.594-1.287s.434-.864.668-1.288a33.208,33.208,0,0,1,6.946-8.79,32.711,32.711,0,0,1,24.412-10.933,28.334,28.334,0,0,1,4.154.271v19.155l1.053-.007a1.255,1.255,0,0,1,1.268,1.232,1.24,1.24,0,0,1-1.208,1.258c.676,0,1.234.829,1.234,1.859s-.621,1.877-1.3,1.884Z" transform="translate(-2148.469 -2404.84)" opacity="0.3" fill="url(#linear-gradient-41)"/>
      <circle id="Ellipse_1" data-name="Ellipse 1" cx="32.935" cy="32.935" r="32.935" transform="translate(175.081 257.855) rotate(-45)" fill="url(#linear-gradient-42)"/>
      <circle id="Ellipse_2" data-name="Ellipse 2" cx="32.935" cy="32.935" r="32.935" transform="translate(191.206 222.436)" fill="url(#linear-gradient-43)"/>
      <path id="Path_58" data-name="Path 58" d="M2478.116,2680.472a30.663,30.663,0,1,1-30.664-30.663c.284,0,.564,0,.846.012A30.665,30.665,0,0,1,2478.116,2680.472Z" transform="translate(-2223.309 -2425.102)" fill="url(#linear-gradient-44)"/>
      <path id="Path_59" data-name="Path 59" d="M1980.568,2396.86l-27.538,8.394,27.538,8.395,27.538-8.395Z" transform="translate(-1756.427 -2155.579)" fill="#fff"/>
      <path id="Path_60" data-name="Path 60" d="M2566.512,2963.279,2549.18,2958v12.069a4.194,4.194,0,0,0,3.322,4.1,61.564,61.564,0,0,0,26.827.065,4.188,4.188,0,0,0,3.236-4.086v-11.767Z" transform="translate(-2342.372 -2702.267)" fill="#fff"/>
      <path id="Path_61" data-name="Path 61" d="M2471.952,2943.229a4.2,4.2,0,0,1-3.95.042.883.883,0,0,1-.42-.944l2.451-12.187,2.433,12.095A.9.9,0,0,1,2471.952,2943.229Z" transform="translate(-2268.972 -2677.212)" fill="#fff"/>
      <path id="Path_62" data-name="Path 62" d="M2017.225,2467.89l-23.435,2.49v4.065h.695l.071-3.562Z" transform="translate(-1793.084 -2219.459)" fill="#fff"/>
      <path id="Path_63" data-name="Path 63" d="M2605.39,2680.581a30.665,30.665,0,0,1-47.08,25.9c2.884-7.845,11.22-16.265,19.849-21.542,15.976-9.765,3.836-27.412-2.587-35.009A30.666,30.666,0,0,1,2605.39,2680.581Z" transform="translate(-2350.583 -2425.209)" fill="#fff" opacity="0.6"/>
    </g>
  </g>
</svg>
