<svg xmlns="http://www.w3.org/2000/svg" xmlns:xlink="http://www.w3.org/1999/xlink" width="430" height="254.605" viewBox="0 0 430 254.605">
  <defs>
    <clipPath id="clip-path">
      <path id="Path_76" data-name="Path 76" d="M347.487,366.855a2.388,2.388,0,0,1-2.388,2.388h0a2.388,2.388,0,0,1-2.379-2.388V329.088A2.388,2.388,0,0,1,345.1,326.7h0a2.388,2.388,0,0,1,2.388,2.388Z" transform="translate(-342.72 -326.7)" fill="none"/>
    </clipPath>
    <clipPath id="clip-path-2">
      <rect id="Rectangle_23" data-name="Rectangle 23" width="92.736" height="49.212" fill="none"/>
    </clipPath>
  </defs>
  <g id="home_2_graduate" transform="translate(0)">
    <path id="Path_64" data-name="Path 64" d="M429.159,344.882a44.523,44.523,0,0,0-62.464-55.873A75.472,75.472,0,0,0,278.987,238,110.812,110.812,0,1,0,60.238,273.578,66.3,66.3,0,0,0,2.42,339.333c0,1.876.1,3.717.243,5.549Z" transform="translate(-2.42 -91.519)" fill="#deedfc"/>
    <path id="Path_65" data-name="Path 65" d="M317.447,179.348a12.288,12.288,0,0,0,4.186-9.9l-3.96-.208a22.083,22.083,0,0,0,.078-9.2l3.96-.148a12.331,12.331,0,0,0-4.038-9.961l-2.944,2.605a22.126,22.126,0,0,0-6.47-6.522l2.692-2.909a12.323,12.323,0,0,0-9.9-4.186l-.208,3.96a22.084,22.084,0,0,0-9.205-.078l-.156-3.951a12.253,12.253,0,0,0-9.952,4.029l2.605,2.953a21.893,21.893,0,0,0-6.556,6.452l-2.909-2.692a12.323,12.323,0,0,0-4.186,9.9l3.96.217a22.084,22.084,0,0,0-.078,9.205l-3.96.148a12.331,12.331,0,0,0,4.038,9.961l2.953-2.649a21.891,21.891,0,0,0,6.452,6.556l-2.692,2.909a12.323,12.323,0,0,0,9.9,4.186l.217-3.951a22.04,22.04,0,0,0,9.2.069l.156,3.96a12.331,12.331,0,0,0,9.961-4.038l-2.649-2.944a22.127,22.127,0,0,0,6.556-6.461ZM291.03,176.4a12.956,12.956,0,1,1,16.977-6.878A12.956,12.956,0,0,1,291.03,176.4Z" transform="translate(-37.684 -90.71)" fill="#f25050"/>
    <path id="Path_66" data-name="Path 66" d="M303.821,151.036a16.143,16.143,0,1,0,8.58,21.172,16.143,16.143,0,0,0-8.58-21.172ZM292.8,177.088a12.158,12.158,0,1,1,15.9-6.452,12.157,12.157,0,0,1-15.9,6.452Z" transform="translate(-39.133 -92.15)" fill="#c61010"/>
    <path id="Path_67" data-name="Path 67" d="M357.092,139.992a6.487,6.487,0,0,0,.495-5.671l-2.023.538a11.705,11.705,0,0,0-1.468-4.655l1.971-.729a6.835,6.835,0,0,0-1.329-2.605,6.947,6.947,0,0,0-2.336-1.737l-1.051,1.815a11.732,11.732,0,0,0-4.342-2.249l.868-1.91a6.5,6.5,0,0,0-5.679-.495l.538,2.032a11.532,11.532,0,0,0-4.646,1.468l-.729-1.971a6.834,6.834,0,0,0-2.605,1.329,6.765,6.765,0,0,0-1.737,2.327l1.815,1.059a11.645,11.645,0,0,0-2.258,4.342l-1.9-.868a6.947,6.947,0,0,0-.868,2.788,6.86,6.86,0,0,0,.4,2.892l2.041-.538a11.741,11.741,0,0,0,1.459,4.655l-1.971.721a6.522,6.522,0,0,0,3.665,4.342l1.059-1.815A11.628,11.628,0,0,0,340.8,147.3l-.868,1.91a6.843,6.843,0,0,0,2.779.868,6.947,6.947,0,0,0,2.9-.4l-.538-2.032a11.62,11.62,0,0,0,4.655-1.468l.721,1.971a6.522,6.522,0,0,0,4.342-3.665l-1.824-1.051a11.619,11.619,0,0,0,2.258-4.342Zm-13.59.417a4.446,4.446,0,1,1,4.82-4.038A4.446,4.446,0,0,1,343.5,140.409Z" transform="translate(-45.503 -88.479)" fill="#f25050"/>
    <path id="Path_68" data-name="Path 68" d="M345.542,129.566a7.451,7.451,0,1,0,6.773,8.076,7.451,7.451,0,0,0-6.773-8.076Zm-1.033,11.819a4.412,4.412,0,1,1,3.224-1.014,4.411,4.411,0,0,1-3.224,1.014Z" transform="translate(-46.51 -89.489)" fill="#c61010"/>
    <rect id="Rectangle_10" data-name="Rectangle 10" width="24.228" height="25.609" transform="translate(201.042 224.177)" fill="#2a3993"/>
    <path id="Path_69" data-name="Path 69" d="M289.968,370.444a4.073,4.073,0,0,1-4.064,4.073h-91.06a4.073,4.073,0,0,1-4.064-4.073h0a4.073,4.073,0,0,1,4.064-4.064h91.043a4.073,4.073,0,0,1,4.064,4.064Z" transform="translate(-27.209 -120.658)" fill="#1c257b"/>
    <rect id="Rectangle_11" data-name="Rectangle 11" width="216.882" height="151.032" rx="9.59" transform="translate(104.711 73.145)" fill="#1c257b"/>
    <rect id="Rectangle_12" data-name="Rectangle 12" width="202.137" height="134.758" rx="2.62" transform="translate(112.093 81.282)" fill="#d6e6fe"/>
    <path id="Path_70" data-name="Path 70" d="M339.891,310.371V175.978a8.354,8.354,0,0,0-8.328-8.328H311.112C285.876,262.9,154.445,298.873,123,306.185v4.186a8.354,8.354,0,0,0,8.328,8.328H331.563A8.354,8.354,0,0,0,339.891,310.371Z" transform="translate(-18.289 -94.505)" fill="#151b30" opacity="0.1"/>
    <rect id="Rectangle_13" data-name="Rectangle 13" width="37.367" height="48.022" rx="1.42" transform="translate(239.252 193.948)" fill="#fffffd"/>
    <rect id="Rectangle_14" data-name="Rectangle 14" width="29.829" height="2.267" transform="translate(243.021 198.385)" fill="#cad6e8"/>
    <rect id="Rectangle_15" data-name="Rectangle 15" width="29.829" height="2.267" transform="translate(243.021 205.758)" fill="#cad6e8"/>
    <rect id="Rectangle_16" data-name="Rectangle 16" width="29.829" height="2.267" transform="translate(243.021 213.139)" fill="#cad6e8"/>
    <rect id="Rectangle_17" data-name="Rectangle 17" width="29.829" height="2.267" transform="translate(243.021 220.512)" fill="#cad6e8"/>
    <rect id="Rectangle_18" data-name="Rectangle 18" width="29.829" height="2.267" transform="translate(243.021 227.893)" fill="#cad6e8"/>
    <rect id="Rectangle_19" data-name="Rectangle 19" width="29.829" height="2.267" transform="translate(243.021 235.266)" fill="#cad6e8"/>
    <path id="Path_71" data-name="Path 71" d="M296.775,326a3.7,3.7,0,0,0-3.682,3.691v1.294a3.7,3.7,0,0,1-3.691,3.682H271.557a3.343,3.343,0,0,0-3.369,3.682l2.44,27.9a4.107,4.107,0,0,0,4,3.673h40.285a4.021,4.021,0,0,0,3.943-3.682l2.562-36.586a3.4,3.4,0,0,0-3.43-3.682Z" transform="translate(-37.394 -115.34)" fill="#f2a516"/>
    <path id="Path_72" data-name="Path 72" d="M305.112,351.193a5.957,5.957,0,0,0-1.806.287,8.067,8.067,0,0,0-15.9,1.963,8.836,8.836,0,0,0,.052.964,4.092,4.092,0,0,0-.868-.1,4.364,4.364,0,1,0,0,8.727h18.523a5.922,5.922,0,1,0,0-11.845Z" transform="translate(-39.243 -117.89)" fill="#fffffd"/>
    <path id="Path_73" data-name="Path 73" d="M320.75,326h-5.636c-1.112,28.127-14.763,39.417-25.644,43.95h28.249a4.021,4.021,0,0,0,3.943-3.682l2.562-36.586A3.4,3.4,0,0,0,320.75,326Z" transform="translate(-40.197 -115.344)" fill="#151b30" opacity="0.1"/>
    <path id="Path_74" data-name="Path 74" d="M347.487,366.855a2.388,2.388,0,0,1-2.388,2.388h0a2.388,2.388,0,0,1-2.379-2.388V329.088A2.388,2.388,0,0,1,345.1,326.7h0a2.388,2.388,0,0,1,2.388,2.388Z" transform="translate(-47.205 -115.436)" fill="#fffffd"/>
    <g id="Group_11" data-name="Group 11" transform="translate(295.515 211.264)" clip-path="url(#clip-path)">
      <path id="Path_75" data-name="Path 75" d="M346.248,374.118a.929.929,0,0,1-.929.929h0a.929.929,0,0,1-.929-.929V346.4a.929.929,0,0,1,.929-.929h0a.929.929,0,0,1,.929.929Z" transform="translate(-342.94 -329.17)" fill="#82aceb" opacity="0.3"/>
    </g>
    <path id="Path_77" data-name="Path 77" d="M350.644,308.64v8.684l-7.034,4.064-7.034-4.064V308.64a12.21,12.21,0,1,0,14.068,0Z" transform="translate(-45.715 -113.06)" fill="#fffffd"/>
    <g id="Group_12" data-name="Group 12" transform="translate(285.893 200.843)" opacity="0.2">
      <path id="Path_78" data-name="Path 78" d="M354.9,314.7a11.749,11.749,0,0,1,.182,2.075,12.218,12.218,0,0,1-23.447,4.785,12.21,12.21,0,0,0,24.237-2.136A12.079,12.079,0,0,0,354.9,314.7Z" transform="translate(-331.64 -314.7)" fill="#82aceb"/>
    </g>
    <path id="Path_79" data-name="Path 79" d="M119.551,159.211a7.572,7.572,0,0,0-12.757,0c-.443.651.608,1.259,1.051.617a6.339,6.339,0,0,1,10.655,0c.434.643,1.494,0,1.051-.617Z" transform="translate(-16.142 -92.935)" fill="#f25050"/>
    <path id="Path_80" data-name="Path 80" d="M123.265,156.235a12.748,12.748,0,0,0-21.51,0c-.434.651.625,1.259,1.051.608a11.524,11.524,0,0,1,19.409,0C122.639,157.494,123.7,156.843,123.265,156.235Z" transform="translate(-15.479 -92.226)" fill="#f25050"/>
    <path id="Path_81" data-name="Path 81" d="M127.678,153.553a18.914,18.914,0,0,0-31.914,0c-.426.66.625,1.277,1.051.617a17.681,17.681,0,0,1,29.812,0C127.053,154.829,128.1,154.169,127.678,153.553Z" transform="translate(-14.691 -91.497)" fill="#f25050"/>
    <circle id="Ellipse_3" data-name="Ellipse 3" cx="2.544" cy="2.544" r="2.544" transform="translate(94.49 67.231)" fill="#f25050"/>
    <rect id="Rectangle_20" data-name="Rectangle 20" width="106.891" height="74.213" rx="1.71" transform="translate(83.913 97.504)" fill="#fffffd" opacity="0.3"/>
    <rect id="Rectangle_21" data-name="Rectangle 21" width="99.249" height="66.233" rx="1.59" transform="translate(87.734 101.498)" fill="#fffffd"/>
    <path id="Path_82" data-name="Path 82" d="M202.685,210.7v-9.031A1.381,1.381,0,0,0,201.3,200.3H104.791a1.381,1.381,0,0,0-1.381,1.372V210.7Z" transform="translate(-15.711 -98.802)" fill="#f25050"/>
    <path id="Path_83" data-name="Path 83" d="M112.327,206.243a2.015,2.015,0,1,1-.587-1.43A2.023,2.023,0,0,1,112.327,206.243Z" transform="translate(-16.352 -99.318)" fill="#fffffd"/>
    <path id="Path_84" data-name="Path 84" d="M121.849,206.243a2.015,2.015,0,1,1-.587-1.43,2.015,2.015,0,0,1,.587,1.43Z" transform="translate(-17.607 -99.318)" fill="#fffffd"/>
    <path id="Path_85" data-name="Path 85" d="M131.387,206.243a2.015,2.015,0,1,1-.59-1.433,2.023,2.023,0,0,1,.59,1.433Z" transform="translate(-18.86 -99.318)" fill="#fffffd"/>
    <rect id="Rectangle_22" data-name="Rectangle 22" width="92.736" height="49.212" transform="translate(90.991 114.863)" fill="#f9dede"/>
    <g id="Group_13" data-name="Group 13" transform="translate(90.982 114.863)" clip-path="url(#clip-path-2)">
      <path id="Path_86" data-name="Path 86" d="M203.179,267.191c3.031,0,3.89-1.876,1.91-4.177l-29.656-34.276a4.629,4.629,0,0,0-7.208,0l-24.489,28.327a4.646,4.646,0,0,1-7.216,0L125.38,244.179a4.637,4.637,0,0,0-7.208,0l-16.335,18.836c-1.989,2.3-1.129,4.177,1.9,4.177Z" transform="translate(-106.345 -217.18)" fill="#fffffd"/>
    </g>
    <path id="Path_87" data-name="Path 87" d="M155.824,232.688a8.137,8.137,0,1,1-8.137-8.128,8.137,8.137,0,0,1,8.137,8.128Z" transform="translate(-20.467 -101.994)" fill="#fffffd"/>
    <path id="Path_88" data-name="Path 88" d="M206.734,266.524a1.381,1.381,0,0,0,1.381-1.372v-63.48a1.381,1.381,0,0,0-1.381-1.372h-9.283c-2.779,65.416-50.766,66.224-52.781,66.224Z" transform="translate(-21.141 -98.802)" fill="#151b30" opacity="0.1"/>
    <path id="Path_89" data-name="Path 89" d="M376.772,275.746a1.867,1.867,0,0,1-1.858,1.867H244.558a1.867,1.867,0,0,1-1.858-1.867V186.067a1.876,1.876,0,0,1,1.858-1.867h130.4a1.876,1.876,0,0,1,1.858,1.867Z" transform="translate(-34.042 -96.683)" fill="#fffffd" opacity="0.3"/>
    <rect id="Rectangle_24" data-name="Rectangle 24" width="126.812" height="86.909" rx="1.59" transform="translate(212.349 90.886)" fill="#fffffd"/>
    <path id="Path_90" data-name="Path 90" d="M373.779,198.483v-9.031a1.372,1.372,0,0,0-1.372-1.372H248.331a1.381,1.381,0,0,0-1.381,1.372v9.031Z" transform="translate(-34.601 -97.194)" fill="#f2a516"/>
    <path id="Path_91" data-name="Path 91" d="M255.837,194.025a2.015,2.015,0,1,1-.593-1.428A2.023,2.023,0,0,1,255.837,194.025Z" transform="translate(-35.238 -97.711)" fill="#fffffd"/>
    <path id="Path_92" data-name="Path 92" d="M265.387,194.025a2.023,2.023,0,1,1-2.015-2.015,2.023,2.023,0,0,1,2.015,2.015Z" transform="translate(-36.495 -97.711)" fill="#fffffd"/>
    <path id="Path_93" data-name="Path 93" d="M274.879,194.025a2.015,2.015,0,1,1-2.015-2.015,2.015,2.015,0,0,1,2.015,2.015Z" transform="translate(-37.746 -97.711)" fill="#fffffd"/>
    <rect id="Rectangle_25" data-name="Rectangle 25" width="53.111" height="25.531" transform="translate(219.652 108.115)" fill="#f9dede"/>
    <path id="Path_94" data-name="Path 94" d="M327.4,221.274c0-4.55,3.474-7.816,8.232-7.816a7.937,7.937,0,0,1,6.435,2.822l-2.7,2.44a4.4,4.4,0,0,0-3.526-1.737,4.273,4.273,0,1,0,0,8.545,4.42,4.42,0,0,0,3.526-1.737l2.7,2.432a7.937,7.937,0,0,1-6.435,2.822C330.882,229.055,327.4,225.825,327.4,221.274Z" transform="translate(-45.188 -100.532)" fill="#f2a516"/>
    <path id="Path_95" data-name="Path 95" d="M359.959,228.812v-7.937l-3.847,6.461h-1.884l-3.821-6.244v7.72H346.49V213.85h3.474l5.262,8.632,5.124-8.632h3.474l.043,14.962Z" transform="translate(-47.701 -100.585)" fill="#f2a516"/>
    <path id="Path_96" data-name="Path 96" d="M368.73,227.412l1.389-3.118a9.4,9.4,0,0,0,4.932,1.476c1.737,0,2.44-.495,2.44-1.216,0-2.371-8.51-.643-8.51-6.2,0-2.675,2.18-4.854,6.626-4.854a11.289,11.289,0,0,1,5.427,1.3l-1.3,3.144a8.892,8.892,0,0,0-4.142-1.155c-1.78,0-2.414.6-2.414,1.346,0,2.293,8.476.582,8.476,6.079,0,2.605-2.171,4.828-6.617,4.828a11.715,11.715,0,0,1-6.3-1.633Z" transform="translate(-50.628 -100.539)" fill="#f2a516"/>
    <rect id="Rectangle_26" data-name="Rectangle 26" width="53.111" height="2.544" transform="translate(219.652 138.631)" fill="#cad6e8"/>
    <rect id="Rectangle_27" data-name="Rectangle 27" width="53.111" height="2.544" transform="translate(219.652 144.475)" fill="#cad6e8"/>
    <rect id="Rectangle_28" data-name="Rectangle 28" width="53.111" height="2.544" transform="translate(219.652 150.319)" fill="#cad6e8"/>
    <rect id="Rectangle_29" data-name="Rectangle 29" width="53.111" height="2.544" transform="translate(219.652 156.164)" fill="#cad6e8"/>
    <rect id="Rectangle_30" data-name="Rectangle 30" width="53.111" height="2.544" transform="translate(219.652 162.008)" fill="#cad6e8"/>
    <rect id="Rectangle_31" data-name="Rectangle 31" width="53.111" height="2.544" transform="translate(219.652 167.852)" fill="#cad6e8"/>
    <rect id="Rectangle_32" data-name="Rectangle 32" width="48.813" height="32.721" transform="translate(283.045 137.667)" fill="#f9dede"/>
    <rect id="Rectangle_33" data-name="Rectangle 33" width="48.813" height="3.96" transform="translate(283.045 137.667)" fill="#f25050"/>
    <path id="Path_97" data-name="Path 97" d="M332.2,244.076a1.025,1.025,0,1,1-1.016-1.016A1.025,1.025,0,0,1,332.2,244.076Z" transform="translate(-45.55 -104.429)" fill="#fffffd"/>
    <path id="Path_98" data-name="Path 98" d="M336.969,244.076a1.025,1.025,0,1,1-1.025-1.016,1.025,1.025,0,0,1,1.025,1.016Z" transform="translate(-46.178 -104.429)" fill="#fffffd"/>
    <path id="Path_99" data-name="Path 99" d="M341.69,244.089a1.025,1.025,0,1,1-1.02-.93,1.025,1.025,0,0,1,1.02.93Z" transform="translate(-46.8 -104.442)" fill="#fffffd"/>
    <path id="Path_100" data-name="Path 100" d="M363.666,261.094a8.493,8.493,0,1,1-8.484-8.484A8.493,8.493,0,0,1,363.666,261.094Z" transform="translate(-47.726 -105.686)" fill="#f25050"/>
    <path id="Path_101" data-name="Path 101" d="M352.02,173.39v9.683l5.592-4.846Z" transform="translate(-46.327 -22.819)" fill="#fffffd"/>
    <path id="Path_102" data-name="Path 102" d="M381.928,273.608V189.452a1.372,1.372,0,0,0-1.372-1.372H365.073c.252,64.8-56.2,86.909-56.2,86.909h71.669a1.381,1.381,0,0,0,1.389-1.381Z" transform="translate(-42.75 -97.194)" fill="#151b30" opacity="0.1"/>
    <rect id="Rectangle_34" data-name="Rectangle 34" width="70.436" height="53.919" rx="1.73" transform="translate(129.408 34.753)" fill="#fffffd" opacity="0.3"/>
    <rect id="Rectangle_35" data-name="Rectangle 35" width="64.782" height="46.928" rx="1.59" transform="translate(132.239 38.253)" fill="#fffffd"/>
    <path id="Path_103" data-name="Path 103" d="M219.472,137.873v-9.031a1.372,1.372,0,0,0-1.372-1.372h-62.03a1.381,1.381,0,0,0-1.381,1.372v9.031Z" transform="translate(-22.459 -89.217)" fill="#f2a516"/>
    <path id="Path_104" data-name="Path 104" d="M163.577,133.413a2.015,2.015,0,1,1-.59-1.433,2.023,2.023,0,0,1,.59,1.433Z" transform="translate(-23.096 -89.733)" fill="#fffffd"/>
    <path id="Path_105" data-name="Path 105" d="M173.1,133.413a2.015,2.015,0,1,1-.587-1.43A2.015,2.015,0,0,1,173.1,133.413Z" transform="translate(-24.352 -89.733)" fill="#fffffd"/>
    <path id="Path_106" data-name="Path 106" d="M182.627,133.413a2.015,2.015,0,1,1-.59-1.433,2.023,2.023,0,0,1,.59,1.433Z" transform="translate(-25.603 -89.733)" fill="#fffffd"/>
    <path id="Path_107" data-name="Path 107" d="M193.529,148.811q-3.17,9.613-6.348,19.226c-.417,1.268,1.58,1.815,2,.547q3.178-9.6,6.348-19.218C195.943,148.091,193.946,147.552,193.529,148.811Z" transform="translate(-26.728 -91.932)" fill="#82aceb"/>
    <path id="Path_108" data-name="Path 108" d="M184.463,163.076l-5.254-3.613,5.254-3.613c1.094-.756.061-2.544-1.042-1.789l-6.556,4.507a1.051,1.051,0,0,0,0,1.789l6.556,4.507C184.524,165.621,185.6,163.832,184.463,163.076Z" transform="translate(-25.312 -92.693)" fill="#82aceb"/>
    <path id="Path_109" data-name="Path 109" d="M198.227,163.076l5.21-3.613-5.21-3.613c-1.094-.756-.061-2.544,1.042-1.789l6.556,4.507a1.059,1.059,0,0,1,0,1.789l-6.556,4.507C198.166,165.621,197.1,163.832,198.227,163.076Z" transform="translate(-28.126 -92.693)" fill="#82aceb"/>
    <path id="Path_110" data-name="Path 110" d="M222.63,174.4A1.381,1.381,0,0,0,224,173.017V128.842a1.372,1.372,0,0,0-1.372-1.372h-8.337c-2.605,24.393-14.563,38.8-25.184,46.893Z" transform="translate(-26.989 -89.217)" fill="#151b30" opacity="0.1"/>
    <rect id="Rectangle_36" data-name="Rectangle 36" width="70.436" height="53.919" rx="1.73" transform="translate(122.296 185.359)" fill="#fffffd" opacity="0.3"/>
    <rect id="Rectangle_37" data-name="Rectangle 37" width="64.782" height="46.937" rx="1.59" transform="translate(125.119 188.85)" fill="#fffffd"/>
    <path id="Path_111" data-name="Path 111" d="M211.282,311.3v-9.031a1.381,1.381,0,0,0-1.381-1.381H147.881a1.389,1.389,0,0,0-1.381,1.381V311.3Z" transform="translate(-21.381 -112.04)" fill="#f2a516"/>
    <path id="Path_112" data-name="Path 112" d="M155.389,306.835a2.015,2.015,0,1,1-2.015-2.015A2.015,2.015,0,0,1,155.389,306.835Z" transform="translate(-22.021 -112.557)" fill="#fffffd"/>
    <path id="Path_113" data-name="Path 113" d="M164.907,306.835a2.023,2.023,0,1,1-2.015-2.015,2.023,2.023,0,0,1,2.015,2.015Z" transform="translate(-23.271 -112.557)" fill="#fffffd"/>
    <path id="Path_114" data-name="Path 114" d="M174.389,306.835a2.015,2.015,0,1,1-2.015-2.015,2.015,2.015,0,0,1,2.015,2.015Z" transform="translate(-24.521 -112.557)" fill="#fffffd"/>
    <rect id="Rectangle_38" data-name="Rectangle 38" width="14.65" height="2.327" transform="translate(128.488 201.737)" fill="#cad6e8"/>
    <rect id="Rectangle_39" data-name="Rectangle 39" width="40.45" height="2.327" transform="translate(145.804 201.737)" fill="#82aceb"/>
    <rect id="Rectangle_40" data-name="Rectangle 40" width="11.159" height="2.327" transform="translate(128.488 207.686)" fill="#cad6e8"/>
    <rect id="Rectangle_41" data-name="Rectangle 41" width="36.898" height="2.327" transform="translate(141.679 207.686)" fill="#82aceb"/>
    <rect id="Rectangle_42" data-name="Rectangle 42" width="14.65" height="2.327" transform="translate(128.488 213.626)" fill="#cad6e8"/>
    <rect id="Rectangle_43" data-name="Rectangle 43" width="25.331" height="2.327" transform="translate(145.804 213.626)" fill="#82aceb"/>
    <rect id="Rectangle_44" data-name="Rectangle 44" width="11.159" height="2.327" transform="translate(128.488 219.574)" fill="#cad6e8"/>
    <rect id="Rectangle_45" data-name="Rectangle 45" width="41.353" height="2.327" transform="translate(141.679 219.574)" fill="#82aceb"/>
    <rect id="Rectangle_46" data-name="Rectangle 46" width="14.65" height="2.327" transform="translate(128.488 225.514)" fill="#cad6e8"/>
    <rect id="Rectangle_47" data-name="Rectangle 47" width="40.45" height="2.327" transform="translate(145.804 225.514)" fill="#82aceb"/>
    <rect id="Rectangle_48" data-name="Rectangle 48" width="11.159" height="2.327" transform="translate(128.488 231.462)" fill="#cad6e8"/>
    <rect id="Rectangle_49" data-name="Rectangle 49" width="36.898" height="2.327" transform="translate(141.679 231.462)" fill="#82aceb"/>
    <path id="Path_115" data-name="Path 115" d="M214.431,347.827a1.381,1.381,0,0,0,1.381-1.381V302.271a1.381,1.381,0,0,0-1.381-1.381H206.1c-2.605,24.4-14.572,38.809-25.184,46.937Z" transform="translate(-25.911 -112.04)" fill="#151b30" opacity="0.1"/>
    <path id="Path_116" data-name="Path 116" d="M76.105,46.413,74.976,43.66h0l-1.138,2.753-2.779.99,2.779,1,1.138,2.753h0L76.105,48.4l2.779-1Z" transform="translate(-9.352 -5.746)" fill="#90bdf4"/>
    <path id="Path_117" data-name="Path 117" d="M80.708,96.762,78.546,91.5h0l-2.162,5.262-5.323,1.9,5.323,1.91,2.162,5.262h0l2.162-5.262,5.315-1.91Z" transform="translate(-9.352 -12.042)" fill="#90bdf4"/>
    <path id="Path_118" data-name="Path 118" d="M77.717,204.834l-1.129-2.744h0l-1.129,2.744-2.779,1,2.779,1,1.129,2.744h0l1.129-2.744,2.779-1Z" transform="translate(-9.565 -26.596)" fill="#90bdf4"/>
    <path id="Path_119" data-name="Path 119" d="M79.976,159l-.625-1.528h0L78.717,159l-1.537.556,1.537.547.634,1.528h0l.625-1.528,1.546-.547Z" transform="translate(-10.157 -20.724)" fill="#90bdf4"/>
    <path id="Path_120" data-name="Path 120" d="M130.526,47.108,129.9,45.58h0l-.634,1.528-1.537.547,1.537.556.634,1.528h0l.625-1.528,1.546-.556Z" transform="translate(-16.81 -5.998)" fill="#90bdf4"/>
    <path id="Path_121" data-name="Path 121" d="M102.035,232.588l-.625-1.528h0l-.634,1.528-1.546.556,1.546.547.634,1.528h0l.625-1.528,1.546-.547Z" transform="translate(-13.059 -30.408)" fill="#90bdf4"/>
    <path id="Path_122" data-name="Path 122" d="M254.567,59.313l-1.129-2.753h0l-1.129,2.753-2.779.99,2.779,1,1.129,2.753h0l1.129-2.753,2.779-1Z" transform="translate(-32.839 -7.443)" fill="#90bdf4"/>
    <path id="Path_123" data-name="Path 123" d="M298.588,32.794l-2.162-5.254h0l-2.162,5.254L288.94,34.7l5.323,1.91,2.162,5.254v.009h0v-.009l2.162-5.254L303.9,34.7Z" transform="translate(-38.025 -3.624)" fill="#90bdf4"/>
    <path id="Path_124" data-name="Path 124" d="M244.256,21.388l-.625-1.528h0l-.625,1.528-1.546.556,1.546.547.625,1.528h0l.625-1.528,1.546-.547Z" transform="translate(-31.777 -2.614)" fill="#90bdf4"/>
    <path id="Path_125" data-name="Path 125" d="M112.036,21.388l-.625-1.528h0l-.634,1.528-1.537.556,1.537.547.634,1.528h0l.625-1.528,1.546-.547Z" transform="translate(-14.376 -2.614)" fill="#90bdf4"/>
    <path id="Path_126" data-name="Path 126" d="M183.027,5.144,181.9,2.4h0l-1.129,2.744-2.779,1,2.779,1L181.9,9.886h0l1.129-2.744,2.779-1Z" transform="translate(-23.424 -0.316)" fill="#90bdf4"/>
    <path id="Path_127" data-name="Path 127" d="M416.518,137.872l-2.162-5.262h0l-2.162,5.262-5.323,1.9,5.323,1.91,2.162,5.262h0l2.162-5.262,5.315-1.91Z" transform="translate(-53.545 -17.452)" fill="#90bdf4"/>
    <path id="Path_128" data-name="Path 128" d="M416.027,92.034,414.9,89.29h0l-1.129,2.744-2.779,1,2.779,1,1.129,2.744v.009h0v-.009l1.129-2.744,2.779-1Z" transform="translate(-54.088 -11.751)" fill="#90bdf4"/>
    <path id="Path_129" data-name="Path 129" d="M394.966,73.958l-.625-1.528h0l-.625,1.528-1.546.547,1.546.556.625,1.528h0l.625-1.528,1.546-.556Z" transform="translate(-51.611 -9.532)" fill="#90bdf4"/>
    <path id="Path_130" data-name="Path 130" d="M407.175,37.568l-.634-1.528h0l-.625,1.528-1.546.547,1.546.556.625,1.528h0l.634-1.528,1.537-.556Z" transform="translate(-53.216 -4.743)" fill="#90bdf4"/>
    <path id="Path_131" data-name="Path 131" d="M392.466,238.288l-.625-1.528h0l-.625,1.528-1.546.556,1.546.556.625,1.528h0l.625-1.528,1.546-.556Z" transform="translate(-51.282 -31.158)" fill="#90bdf4"/>
    <path id="Path_132" data-name="Path 132" d="M411.527,189.584,410.4,186.84h0l-1.138,2.744-2.77,1,2.77,1,1.138,2.744h0l1.129-2.744,2.779-1Z" transform="translate(-53.495 -24.589)" fill="#90bdf4"/>
    <path id="Path_133" data-name="Path 133" d="M360.175,10.158l-.634-1.528h0l-.625,1.528-1.546.547,1.546.556.625,1.528h0l.634-1.528,1.537-.556Z" transform="translate(-47.031 -1.136)" fill="#90bdf4"/>
    <path id="Path_134" data-name="Path 134" d="M280.146,1.528,279.521,0h0l-.634,1.528-1.537.556,1.537.556.634,1.52h0l.625-1.52,1.546-.556Z" transform="translate(-36.5)" fill="#90bdf4"/>
  </g>
</svg>
